<svg viewBox="0 0 100 100">
  <path id="profile" d="M32 33c-1.4-1.6-1.4-7-1.4-10.4.6-1.7 3.2-3.5 5.3-5.2 0-.6 3-5.3 3-4 2 1.7 5.3-3 5.3-3 2-1.4 11 1.6 11 1.6-.6 1.7 4.3 3.4 6.4 3.4l1.7 1.4c1.7 0 2 8 2 8 .8 6-1 11.7-1 12.4 2.7 2.4 0 5.2 0 8.7 0 1.3-1.7 3.4-1.7 3.4L60.5 59c1.3 4-8.5 14-11 14-4.4 0-11.7-7-11.7-11 0-3-1.8-7.6-2.8-10-2.6-1.3-1.5-4.8-2.6-6.6-1-1.7-2.3-5.6-.5-7V33zm61.5 52l1.5-7-31.2-14.5L55.5 95l-3-18 2.7-4.4s-4.7 2.6-6.4 2.6c-1.8 0-6-2-6-2L46 77l-3 18.2-9.5-31-29 16 2.2 5.3L4.5 100H96l-2.5-15z" />
</svg>
