<svg viewBox="0 0 100 100">
  <path id="work" d="M46 46.6l1.8 2.5-.5 3h5l-.8-3 1.5-2s-2.6 1-3.6 1-3.4-1-3.4-1zM58 14c-1.2 0-4-1-3.7-2 0 0-5-1.8-6.2-.8 0 0-2 2.6-3 1.6 0-.7-2 2-2 2.3-1.2 1-2.7 2-3 3 0 2 0 5 .7 6v3c-1 .8-.3 3 .3 4s0 3 1.4 3.8c.7 1.4 1.7 4 1.6 5.8 0 2.3 4.2 6.4 6.7 6.3 1.4 0 7-5.8 6.3-8l1.5-5.4s1-1.2 1-2.2c0-2 1.5-3.6 0-5 0-.4 1-3.6.6-7 0 0-.2-4.6-1.2-4.6zm0 27.4l-2.3 10.4h22l-2-3L58 41.4zm-32.2 8l-2.4 2.4H43l-2.3-10-15 7.6zM80 88H20L10 53h80L80 88zM47.4 65c0 1 1 2 2.6 2s2.5-1 2.5-2-1-2-2.5-2c0 0-2.6 0-2.6 2z"/>
</svg>
